<mxfile host="app.diagrams.net" modified="2023-08-30T09:15:00.871Z" agent="Mozilla/5.0 (Windows NT 10.0; Win64; x64; rv:109.0) Gecko/20100101 Firefox/116.0" etag="vpPEr2MOCjAqznw2xdNx" version="21.6.9" type="device">
  <diagram name="PÃ¡gina-1" id="K_YTZzrowmz89OmNlf6y">
    <mxGraphModel dx="1194" dy="752" grid="1" gridSize="10" guides="1" tooltips="1" connect="1" arrows="1" fold="1" page="1" pageScale="1" pageWidth="827" pageHeight="1169" math="0" shadow="0">
      <root>
        <mxCell id="0" />
        <mxCell id="1" parent="0" />
        <mxCell id="hUBGKE-LYDCxL3Ye9ySd-1" value="" style="swimlane;startSize=0;" parent="1" vertex="1">
          <mxGeometry x="29" y="260" width="240" height="460" as="geometry" />
        </mxCell>
        <mxCell id="hUBGKE-LYDCxL3Ye9ySd-7" style="edgeStyle=orthogonalEdgeStyle;rounded=0;orthogonalLoop=1;jettySize=auto;html=1;exitX=0.75;exitY=1;exitDx=0;exitDy=0;entryX=0.75;entryY=0;entryDx=0;entryDy=0;" parent="hUBGKE-LYDCxL3Ye9ySd-1" source="hUBGKE-LYDCxL3Ye9ySd-2" target="hUBGKE-LYDCxL3Ye9ySd-5" edge="1">
          <mxGeometry relative="1" as="geometry" />
        </mxCell>
        <mxCell id="hUBGKE-LYDCxL3Ye9ySd-2" value="" style="swimlane;startSize=0;" parent="hUBGKE-LYDCxL3Ye9ySd-1" vertex="1">
          <mxGeometry x="70" y="150" width="100" height="50" as="geometry" />
        </mxCell>
        <mxCell id="hUBGKE-LYDCxL3Ye9ySd-4" value="Spider" style="text;html=1;align=center;verticalAlign=middle;resizable=0;points=[];autosize=1;strokeColor=none;fillColor=none;fontSize=20;labelBackgroundColor=none;" parent="hUBGKE-LYDCxL3Ye9ySd-2" vertex="1">
          <mxGeometry x="10" y="5" width="80" height="40" as="geometry" />
        </mxCell>
        <mxCell id="hUBGKE-LYDCxL3Ye9ySd-8" style="edgeStyle=orthogonalEdgeStyle;rounded=0;orthogonalLoop=1;jettySize=auto;html=1;exitX=0.25;exitY=0;exitDx=0;exitDy=0;entryX=0.25;entryY=1;entryDx=0;entryDy=0;" parent="hUBGKE-LYDCxL3Ye9ySd-1" source="hUBGKE-LYDCxL3Ye9ySd-5" target="hUBGKE-LYDCxL3Ye9ySd-2" edge="1">
          <mxGeometry relative="1" as="geometry" />
        </mxCell>
        <mxCell id="hUBGKE-LYDCxL3Ye9ySd-5" value="" style="swimlane;startSize=0;" parent="hUBGKE-LYDCxL3Ye9ySd-1" vertex="1">
          <mxGeometry x="70" y="230" width="100" height="50" as="geometry" />
        </mxCell>
        <mxCell id="hUBGKE-LYDCxL3Ye9ySd-6" value="JSONs" style="text;html=1;align=center;verticalAlign=middle;resizable=0;points=[];autosize=1;strokeColor=none;fillColor=none;fontSize=18;" parent="hUBGKE-LYDCxL3Ye9ySd-5" vertex="1">
          <mxGeometry x="10" y="5" width="80" height="40" as="geometry" />
        </mxCell>
        <mxCell id="hUBGKE-LYDCxL3Ye9ySd-15" style="edgeStyle=orthogonalEdgeStyle;rounded=0;orthogonalLoop=1;jettySize=auto;html=1;entryX=0.5;entryY=0;entryDx=0;entryDy=0;" parent="hUBGKE-LYDCxL3Ye9ySd-1" source="hUBGKE-LYDCxL3Ye9ySd-9" target="hUBGKE-LYDCxL3Ye9ySd-2" edge="1">
          <mxGeometry relative="1" as="geometry" />
        </mxCell>
        <mxCell id="hUBGKE-LYDCxL3Ye9ySd-9" value="" style="swimlane;startSize=0;" parent="hUBGKE-LYDCxL3Ye9ySd-1" vertex="1">
          <mxGeometry x="20" y="40" width="200" height="80" as="geometry" />
        </mxCell>
        <mxCell id="hUBGKE-LYDCxL3Ye9ySd-11" value="code_spider_runner.py" style="text;html=1;align=center;verticalAlign=middle;resizable=0;points=[];autosize=1;strokeColor=none;fillColor=none;fontSize=15;" parent="hUBGKE-LYDCxL3Ye9ySd-9" vertex="1">
          <mxGeometry x="15" y="40" width="170" height="30" as="geometry" />
        </mxCell>
        <mxCell id="hUBGKE-LYDCxL3Ye9ySd-10" value="data_spider_runner.py" style="text;html=1;align=center;verticalAlign=middle;resizable=0;points=[];autosize=1;strokeColor=none;fillColor=none;fontSize=15;" parent="hUBGKE-LYDCxL3Ye9ySd-9" vertex="1">
          <mxGeometry x="15" y="10" width="170" height="30" as="geometry" />
        </mxCell>
        <mxCell id="hUBGKE-LYDCxL3Ye9ySd-16" value="&lt;div style=&quot;font-size: 18px;&quot;&gt;VENV&lt;/div&gt;" style="text;html=1;align=center;verticalAlign=middle;resizable=0;points=[];autosize=1;strokeColor=none;fillColor=none;fontSize=18;" parent="hUBGKE-LYDCxL3Ye9ySd-1" vertex="1">
          <mxGeometry width="70" height="40" as="geometry" />
        </mxCell>
        <mxCell id="hUBGKE-LYDCxL3Ye9ySd-25" style="edgeStyle=orthogonalEdgeStyle;rounded=0;orthogonalLoop=1;jettySize=auto;html=1;" parent="1" source="hUBGKE-LYDCxL3Ye9ySd-17" edge="1">
          <mxGeometry relative="1" as="geometry">
            <mxPoint x="129" y="540" as="targetPoint" />
            <Array as="points">
              <mxPoint x="129" y="540" />
            </Array>
          </mxGeometry>
        </mxCell>
        <mxCell id="hUBGKE-LYDCxL3Ye9ySd-17" value="" style="swimlane;startSize=0;" parent="1" vertex="1">
          <mxGeometry x="49" y="570" width="200" height="130" as="geometry" />
        </mxCell>
        <mxCell id="hUBGKE-LYDCxL3Ye9ySd-18" value="formatear_code_JSONs.py" style="text;html=1;align=center;verticalAlign=middle;resizable=0;points=[];autosize=1;strokeColor=none;fillColor=none;fontSize=15;" parent="hUBGKE-LYDCxL3Ye9ySd-17" vertex="1">
          <mxGeometry y="5" width="200" height="30" as="geometry" />
        </mxCell>
        <mxCell id="hUBGKE-LYDCxL3Ye9ySd-19" value="formatear_data_JSONs.py" style="text;html=1;align=center;verticalAlign=middle;resizable=0;points=[];autosize=1;strokeColor=none;fillColor=none;fontSize=15;" parent="hUBGKE-LYDCxL3Ye9ySd-17" vertex="1">
          <mxGeometry y="35" width="200" height="30" as="geometry" />
        </mxCell>
        <mxCell id="hUBGKE-LYDCxL3Ye9ySd-20" value="filtrar_data_JSONs.py" style="text;html=1;align=center;verticalAlign=middle;resizable=0;points=[];autosize=1;strokeColor=none;fillColor=none;fontSize=15;" parent="hUBGKE-LYDCxL3Ye9ySd-17" vertex="1">
          <mxGeometry x="15" y="65" width="170" height="30" as="geometry" />
        </mxCell>
        <mxCell id="3lGJYCWVn_nTpUlj_sdL-5" value="filtrar_code_JSONs.py" style="text;html=1;align=center;verticalAlign=middle;resizable=0;points=[];autosize=1;strokeColor=none;fillColor=none;fontSize=15;" vertex="1" parent="hUBGKE-LYDCxL3Ye9ySd-17">
          <mxGeometry x="15" y="90" width="170" height="30" as="geometry" />
        </mxCell>
        <mxCell id="hUBGKE-LYDCxL3Ye9ySd-23" style="edgeStyle=orthogonalEdgeStyle;rounded=0;orthogonalLoop=1;jettySize=auto;html=1;exitX=0.75;exitY=1;exitDx=0;exitDy=0;entryX=0.635;entryY=-0.01;entryDx=0;entryDy=0;entryPerimeter=0;" parent="1" source="hUBGKE-LYDCxL3Ye9ySd-5" target="hUBGKE-LYDCxL3Ye9ySd-17" edge="1">
          <mxGeometry relative="1" as="geometry" />
        </mxCell>
        <mxCell id="hUBGKE-LYDCxL3Ye9ySd-26" value="" style="swimlane;startSize=0;" parent="1" vertex="1">
          <mxGeometry x="289" y="260" width="240" height="460" as="geometry" />
        </mxCell>
        <mxCell id="hUBGKE-LYDCxL3Ye9ySd-27" style="edgeStyle=orthogonalEdgeStyle;rounded=0;orthogonalLoop=1;jettySize=auto;html=1;exitX=0.75;exitY=1;exitDx=0;exitDy=0;entryX=0.75;entryY=0;entryDx=0;entryDy=0;" parent="hUBGKE-LYDCxL3Ye9ySd-26" source="hUBGKE-LYDCxL3Ye9ySd-28" target="hUBGKE-LYDCxL3Ye9ySd-31" edge="1">
          <mxGeometry relative="1" as="geometry" />
        </mxCell>
        <mxCell id="hUBGKE-LYDCxL3Ye9ySd-28" value="" style="swimlane;startSize=0;" parent="hUBGKE-LYDCxL3Ye9ySd-26" vertex="1">
          <mxGeometry x="70" y="150" width="100" height="50" as="geometry" />
        </mxCell>
        <mxCell id="hUBGKE-LYDCxL3Ye9ySd-29" value="Spider" style="text;html=1;align=center;verticalAlign=middle;resizable=0;points=[];autosize=1;strokeColor=none;fillColor=none;fontSize=20;labelBackgroundColor=none;" parent="hUBGKE-LYDCxL3Ye9ySd-28" vertex="1">
          <mxGeometry x="10" y="5" width="80" height="40" as="geometry" />
        </mxCell>
        <mxCell id="hUBGKE-LYDCxL3Ye9ySd-30" style="edgeStyle=orthogonalEdgeStyle;rounded=0;orthogonalLoop=1;jettySize=auto;html=1;exitX=0.25;exitY=0;exitDx=0;exitDy=0;entryX=0.25;entryY=1;entryDx=0;entryDy=0;" parent="hUBGKE-LYDCxL3Ye9ySd-26" source="hUBGKE-LYDCxL3Ye9ySd-31" target="hUBGKE-LYDCxL3Ye9ySd-28" edge="1">
          <mxGeometry relative="1" as="geometry" />
        </mxCell>
        <mxCell id="hUBGKE-LYDCxL3Ye9ySd-31" value="" style="swimlane;startSize=0;" parent="hUBGKE-LYDCxL3Ye9ySd-26" vertex="1">
          <mxGeometry x="70" y="230" width="100" height="50" as="geometry" />
        </mxCell>
        <mxCell id="hUBGKE-LYDCxL3Ye9ySd-32" value="JSONs" style="text;html=1;align=center;verticalAlign=middle;resizable=0;points=[];autosize=1;strokeColor=none;fillColor=none;fontSize=18;" parent="hUBGKE-LYDCxL3Ye9ySd-31" vertex="1">
          <mxGeometry x="10" y="5" width="80" height="40" as="geometry" />
        </mxCell>
        <mxCell id="hUBGKE-LYDCxL3Ye9ySd-33" style="edgeStyle=orthogonalEdgeStyle;rounded=0;orthogonalLoop=1;jettySize=auto;html=1;entryX=0.5;entryY=0;entryDx=0;entryDy=0;" parent="hUBGKE-LYDCxL3Ye9ySd-26" source="hUBGKE-LYDCxL3Ye9ySd-34" target="hUBGKE-LYDCxL3Ye9ySd-28" edge="1">
          <mxGeometry relative="1" as="geometry" />
        </mxCell>
        <mxCell id="hUBGKE-LYDCxL3Ye9ySd-34" value="" style="swimlane;startSize=0;" parent="hUBGKE-LYDCxL3Ye9ySd-26" vertex="1">
          <mxGeometry x="20" y="40" width="200" height="80" as="geometry" />
        </mxCell>
        <mxCell id="hUBGKE-LYDCxL3Ye9ySd-35" value="code_spider_runner.py" style="text;html=1;align=center;verticalAlign=middle;resizable=0;points=[];autosize=1;strokeColor=none;fillColor=none;fontSize=15;" parent="hUBGKE-LYDCxL3Ye9ySd-34" vertex="1">
          <mxGeometry x="15" y="40" width="170" height="30" as="geometry" />
        </mxCell>
        <mxCell id="hUBGKE-LYDCxL3Ye9ySd-36" value="data_spider_runner.py" style="text;html=1;align=center;verticalAlign=middle;resizable=0;points=[];autosize=1;strokeColor=none;fillColor=none;fontSize=15;" parent="hUBGKE-LYDCxL3Ye9ySd-34" vertex="1">
          <mxGeometry x="15" y="10" width="170" height="30" as="geometry" />
        </mxCell>
        <mxCell id="hUBGKE-LYDCxL3Ye9ySd-37" value="&lt;div style=&quot;font-size: 18px;&quot;&gt;VENV&lt;/div&gt;" style="text;html=1;align=center;verticalAlign=middle;resizable=0;points=[];autosize=1;strokeColor=none;fillColor=none;fontSize=18;" parent="hUBGKE-LYDCxL3Ye9ySd-26" vertex="1">
          <mxGeometry width="70" height="40" as="geometry" />
        </mxCell>
        <mxCell id="hUBGKE-LYDCxL3Ye9ySd-39" value="" style="swimlane;startSize=0;" parent="hUBGKE-LYDCxL3Ye9ySd-26" vertex="1">
          <mxGeometry x="20" y="310" width="200" height="130" as="geometry" />
        </mxCell>
        <mxCell id="hUBGKE-LYDCxL3Ye9ySd-40" value="formatear_code_JSONs.py" style="text;html=1;align=center;verticalAlign=middle;resizable=0;points=[];autosize=1;strokeColor=none;fillColor=none;fontSize=15;" parent="hUBGKE-LYDCxL3Ye9ySd-39" vertex="1">
          <mxGeometry y="5" width="200" height="30" as="geometry" />
        </mxCell>
        <mxCell id="hUBGKE-LYDCxL3Ye9ySd-41" value="formatear_data_JSONs.py" style="text;html=1;align=center;verticalAlign=middle;resizable=0;points=[];autosize=1;strokeColor=none;fillColor=none;fontSize=15;" parent="hUBGKE-LYDCxL3Ye9ySd-39" vertex="1">
          <mxGeometry y="35" width="200" height="30" as="geometry" />
        </mxCell>
        <mxCell id="hUBGKE-LYDCxL3Ye9ySd-42" value="filtrar_datos_JSONs.py" style="text;html=1;align=center;verticalAlign=middle;resizable=0;points=[];autosize=1;strokeColor=none;fillColor=none;fontSize=15;" parent="hUBGKE-LYDCxL3Ye9ySd-39" vertex="1">
          <mxGeometry x="15" y="65" width="170" height="30" as="geometry" />
        </mxCell>
        <mxCell id="3lGJYCWVn_nTpUlj_sdL-6" value="filtrar_code_JSONs.py" style="text;html=1;align=center;verticalAlign=middle;resizable=0;points=[];autosize=1;strokeColor=none;fillColor=none;fontSize=15;" vertex="1" parent="hUBGKE-LYDCxL3Ye9ySd-39">
          <mxGeometry x="15" y="95" width="170" height="30" as="geometry" />
        </mxCell>
        <mxCell id="hUBGKE-LYDCxL3Ye9ySd-43" style="edgeStyle=orthogonalEdgeStyle;rounded=0;orthogonalLoop=1;jettySize=auto;html=1;exitX=0.75;exitY=1;exitDx=0;exitDy=0;entryX=0.635;entryY=-0.01;entryDx=0;entryDy=0;entryPerimeter=0;" parent="hUBGKE-LYDCxL3Ye9ySd-26" source="hUBGKE-LYDCxL3Ye9ySd-31" target="hUBGKE-LYDCxL3Ye9ySd-39" edge="1">
          <mxGeometry relative="1" as="geometry" />
        </mxCell>
        <mxCell id="hUBGKE-LYDCxL3Ye9ySd-38" style="edgeStyle=orthogonalEdgeStyle;rounded=0;orthogonalLoop=1;jettySize=auto;html=1;" parent="1" source="hUBGKE-LYDCxL3Ye9ySd-39" edge="1">
          <mxGeometry relative="1" as="geometry">
            <mxPoint x="389" y="540" as="targetPoint" />
            <Array as="points">
              <mxPoint x="389" y="540" />
            </Array>
          </mxGeometry>
        </mxCell>
        <mxCell id="hUBGKE-LYDCxL3Ye9ySd-62" value="" style="swimlane;startSize=0;" parent="1" vertex="1">
          <mxGeometry x="549" y="260" width="240" height="460" as="geometry" />
        </mxCell>
        <mxCell id="hUBGKE-LYDCxL3Ye9ySd-63" style="edgeStyle=orthogonalEdgeStyle;rounded=0;orthogonalLoop=1;jettySize=auto;html=1;exitX=0.75;exitY=1;exitDx=0;exitDy=0;entryX=0.75;entryY=0;entryDx=0;entryDy=0;" parent="hUBGKE-LYDCxL3Ye9ySd-62" source="hUBGKE-LYDCxL3Ye9ySd-64" target="hUBGKE-LYDCxL3Ye9ySd-67" edge="1">
          <mxGeometry relative="1" as="geometry" />
        </mxCell>
        <mxCell id="hUBGKE-LYDCxL3Ye9ySd-64" value="" style="swimlane;startSize=0;" parent="hUBGKE-LYDCxL3Ye9ySd-62" vertex="1">
          <mxGeometry x="70" y="150" width="100" height="50" as="geometry" />
        </mxCell>
        <mxCell id="hUBGKE-LYDCxL3Ye9ySd-65" value="Spider" style="text;html=1;align=center;verticalAlign=middle;resizable=0;points=[];autosize=1;strokeColor=none;fillColor=none;fontSize=20;labelBackgroundColor=none;" parent="hUBGKE-LYDCxL3Ye9ySd-64" vertex="1">
          <mxGeometry x="10" y="5" width="80" height="40" as="geometry" />
        </mxCell>
        <mxCell id="hUBGKE-LYDCxL3Ye9ySd-66" style="edgeStyle=orthogonalEdgeStyle;rounded=0;orthogonalLoop=1;jettySize=auto;html=1;exitX=0.25;exitY=0;exitDx=0;exitDy=0;entryX=0.25;entryY=1;entryDx=0;entryDy=0;" parent="hUBGKE-LYDCxL3Ye9ySd-62" source="hUBGKE-LYDCxL3Ye9ySd-67" target="hUBGKE-LYDCxL3Ye9ySd-64" edge="1">
          <mxGeometry relative="1" as="geometry" />
        </mxCell>
        <mxCell id="hUBGKE-LYDCxL3Ye9ySd-67" value="" style="swimlane;startSize=0;" parent="hUBGKE-LYDCxL3Ye9ySd-62" vertex="1">
          <mxGeometry x="70" y="230" width="100" height="50" as="geometry" />
        </mxCell>
        <mxCell id="hUBGKE-LYDCxL3Ye9ySd-68" value="JSONs" style="text;html=1;align=center;verticalAlign=middle;resizable=0;points=[];autosize=1;strokeColor=none;fillColor=none;fontSize=18;" parent="hUBGKE-LYDCxL3Ye9ySd-67" vertex="1">
          <mxGeometry x="10" y="5" width="80" height="40" as="geometry" />
        </mxCell>
        <mxCell id="hUBGKE-LYDCxL3Ye9ySd-69" style="edgeStyle=orthogonalEdgeStyle;rounded=0;orthogonalLoop=1;jettySize=auto;html=1;entryX=0.5;entryY=0;entryDx=0;entryDy=0;" parent="hUBGKE-LYDCxL3Ye9ySd-62" source="hUBGKE-LYDCxL3Ye9ySd-70" target="hUBGKE-LYDCxL3Ye9ySd-64" edge="1">
          <mxGeometry relative="1" as="geometry" />
        </mxCell>
        <mxCell id="hUBGKE-LYDCxL3Ye9ySd-70" value="" style="swimlane;startSize=0;" parent="hUBGKE-LYDCxL3Ye9ySd-62" vertex="1">
          <mxGeometry x="20" y="40" width="200" height="80" as="geometry" />
        </mxCell>
        <mxCell id="hUBGKE-LYDCxL3Ye9ySd-71" value="code_spider_runner.py" style="text;html=1;align=center;verticalAlign=middle;resizable=0;points=[];autosize=1;strokeColor=none;fillColor=none;fontSize=15;" parent="hUBGKE-LYDCxL3Ye9ySd-70" vertex="1">
          <mxGeometry x="15" y="40" width="170" height="30" as="geometry" />
        </mxCell>
        <mxCell id="hUBGKE-LYDCxL3Ye9ySd-72" value="data_spider_runner.py" style="text;html=1;align=center;verticalAlign=middle;resizable=0;points=[];autosize=1;strokeColor=none;fillColor=none;fontSize=15;" parent="hUBGKE-LYDCxL3Ye9ySd-70" vertex="1">
          <mxGeometry x="15" y="10" width="170" height="30" as="geometry" />
        </mxCell>
        <mxCell id="hUBGKE-LYDCxL3Ye9ySd-73" value="&lt;div style=&quot;font-size: 18px;&quot;&gt;VENV&lt;/div&gt;" style="text;html=1;align=center;verticalAlign=middle;resizable=0;points=[];autosize=1;strokeColor=none;fillColor=none;fontSize=18;" parent="hUBGKE-LYDCxL3Ye9ySd-62" vertex="1">
          <mxGeometry width="70" height="40" as="geometry" />
        </mxCell>
        <mxCell id="hUBGKE-LYDCxL3Ye9ySd-74" style="edgeStyle=orthogonalEdgeStyle;rounded=0;orthogonalLoop=1;jettySize=auto;html=1;" parent="1" source="hUBGKE-LYDCxL3Ye9ySd-75" edge="1">
          <mxGeometry relative="1" as="geometry">
            <mxPoint x="649" y="540" as="targetPoint" />
            <Array as="points">
              <mxPoint x="649" y="540" />
            </Array>
          </mxGeometry>
        </mxCell>
        <mxCell id="hUBGKE-LYDCxL3Ye9ySd-75" value="" style="swimlane;startSize=0;" parent="1" vertex="1">
          <mxGeometry x="569" y="570" width="200" height="130" as="geometry" />
        </mxCell>
        <mxCell id="hUBGKE-LYDCxL3Ye9ySd-76" value="formatear_code_JSONs.py" style="text;html=1;align=center;verticalAlign=middle;resizable=0;points=[];autosize=1;strokeColor=none;fillColor=none;fontSize=15;" parent="hUBGKE-LYDCxL3Ye9ySd-75" vertex="1">
          <mxGeometry y="5" width="200" height="30" as="geometry" />
        </mxCell>
        <mxCell id="hUBGKE-LYDCxL3Ye9ySd-77" value="formatear_data_JSONs.py" style="text;html=1;align=center;verticalAlign=middle;resizable=0;points=[];autosize=1;strokeColor=none;fillColor=none;fontSize=15;" parent="hUBGKE-LYDCxL3Ye9ySd-75" vertex="1">
          <mxGeometry y="35" width="200" height="30" as="geometry" />
        </mxCell>
        <mxCell id="hUBGKE-LYDCxL3Ye9ySd-78" value="filtrar_datos_JSONs.py" style="text;html=1;align=center;verticalAlign=middle;resizable=0;points=[];autosize=1;strokeColor=none;fillColor=none;fontSize=15;" parent="hUBGKE-LYDCxL3Ye9ySd-75" vertex="1">
          <mxGeometry x="15" y="65" width="170" height="30" as="geometry" />
        </mxCell>
        <mxCell id="3lGJYCWVn_nTpUlj_sdL-7" value="filtrar_code_JSONs.py" style="text;html=1;align=center;verticalAlign=middle;resizable=0;points=[];autosize=1;strokeColor=none;fillColor=none;fontSize=15;" vertex="1" parent="hUBGKE-LYDCxL3Ye9ySd-75">
          <mxGeometry x="15" y="95" width="170" height="30" as="geometry" />
        </mxCell>
        <mxCell id="hUBGKE-LYDCxL3Ye9ySd-79" style="edgeStyle=orthogonalEdgeStyle;rounded=0;orthogonalLoop=1;jettySize=auto;html=1;exitX=0.75;exitY=1;exitDx=0;exitDy=0;entryX=0.635;entryY=-0.01;entryDx=0;entryDy=0;entryPerimeter=0;" parent="1" source="hUBGKE-LYDCxL3Ye9ySd-67" target="hUBGKE-LYDCxL3Ye9ySd-75" edge="1">
          <mxGeometry relative="1" as="geometry" />
        </mxCell>
        <mxCell id="hUBGKE-LYDCxL3Ye9ySd-83" style="edgeStyle=orthogonalEdgeStyle;rounded=0;orthogonalLoop=1;jettySize=auto;html=1;exitX=0;exitY=0.5;exitDx=0;exitDy=0;entryX=0.25;entryY=0;entryDx=0;entryDy=0;" parent="1" source="hUBGKE-LYDCxL3Ye9ySd-80" target="hUBGKE-LYDCxL3Ye9ySd-1" edge="1">
          <mxGeometry relative="1" as="geometry" />
        </mxCell>
        <mxCell id="hUBGKE-LYDCxL3Ye9ySd-84" style="edgeStyle=orthogonalEdgeStyle;rounded=0;orthogonalLoop=1;jettySize=auto;html=1;exitX=0;exitY=0.75;exitDx=0;exitDy=0;entryX=0.5;entryY=0;entryDx=0;entryDy=0;" parent="1" source="hUBGKE-LYDCxL3Ye9ySd-80" target="hUBGKE-LYDCxL3Ye9ySd-9" edge="1">
          <mxGeometry relative="1" as="geometry" />
        </mxCell>
        <mxCell id="hUBGKE-LYDCxL3Ye9ySd-85" style="edgeStyle=orthogonalEdgeStyle;rounded=0;orthogonalLoop=1;jettySize=auto;html=1;exitX=1;exitY=0.5;exitDx=0;exitDy=0;entryX=0.75;entryY=0;entryDx=0;entryDy=0;" parent="1" source="hUBGKE-LYDCxL3Ye9ySd-80" target="hUBGKE-LYDCxL3Ye9ySd-62" edge="1">
          <mxGeometry relative="1" as="geometry" />
        </mxCell>
        <mxCell id="hUBGKE-LYDCxL3Ye9ySd-86" style="edgeStyle=orthogonalEdgeStyle;rounded=0;orthogonalLoop=1;jettySize=auto;html=1;exitX=1;exitY=0.75;exitDx=0;exitDy=0;entryX=0.5;entryY=0;entryDx=0;entryDy=0;" parent="1" source="hUBGKE-LYDCxL3Ye9ySd-80" target="hUBGKE-LYDCxL3Ye9ySd-70" edge="1">
          <mxGeometry relative="1" as="geometry" />
        </mxCell>
        <mxCell id="hUBGKE-LYDCxL3Ye9ySd-87" style="edgeStyle=orthogonalEdgeStyle;rounded=0;orthogonalLoop=1;jettySize=auto;html=1;exitX=0.395;exitY=0.988;exitDx=0;exitDy=0;exitPerimeter=0;" parent="1" source="hUBGKE-LYDCxL3Ye9ySd-80" edge="1">
          <mxGeometry relative="1" as="geometry">
            <mxPoint x="389" y="300" as="targetPoint" />
            <Array as="points">
              <mxPoint x="391" y="199" />
              <mxPoint x="391" y="200" />
              <mxPoint x="389" y="200" />
            </Array>
          </mxGeometry>
        </mxCell>
        <mxCell id="3lGJYCWVn_nTpUlj_sdL-8" style="edgeStyle=orthogonalEdgeStyle;rounded=0;orthogonalLoop=1;jettySize=auto;html=1;exitX=0.75;exitY=1;exitDx=0;exitDy=0;entryX=0.708;entryY=0.007;entryDx=0;entryDy=0;entryPerimeter=0;" edge="1" parent="1" source="hUBGKE-LYDCxL3Ye9ySd-80" target="hUBGKE-LYDCxL3Ye9ySd-26">
          <mxGeometry relative="1" as="geometry" />
        </mxCell>
        <mxCell id="hUBGKE-LYDCxL3Ye9ySd-80" value="" style="swimlane;startSize=0;" parent="1" vertex="1">
          <mxGeometry x="309" y="120" width="200" height="80" as="geometry" />
        </mxCell>
        <mxCell id="hUBGKE-LYDCxL3Ye9ySd-82" value="code_spider_executer.sh" style="text;html=1;align=center;verticalAlign=middle;resizable=0;points=[];autosize=1;strokeColor=none;fillColor=none;fontSize=15;" parent="hUBGKE-LYDCxL3Ye9ySd-80" vertex="1">
          <mxGeometry x="5" y="40" width="190" height="30" as="geometry" />
        </mxCell>
        <mxCell id="hUBGKE-LYDCxL3Ye9ySd-81" value="data_spider_executer.sh" style="text;html=1;align=center;verticalAlign=middle;resizable=0;points=[];autosize=1;strokeColor=none;fillColor=none;fontSize=15;" parent="hUBGKE-LYDCxL3Ye9ySd-80" vertex="1">
          <mxGeometry x="10" y="10" width="180" height="30" as="geometry" />
        </mxCell>
        <mxCell id="hUBGKE-LYDCxL3Ye9ySd-91" style="edgeStyle=orthogonalEdgeStyle;rounded=0;orthogonalLoop=1;jettySize=auto;html=1;exitX=0.5;exitY=1;exitDx=0;exitDy=0;entryX=0.5;entryY=0;entryDx=0;entryDy=0;" parent="1" target="hUBGKE-LYDCxL3Ye9ySd-80" edge="1">
          <mxGeometry relative="1" as="geometry">
            <mxPoint x="409" y="70" as="sourcePoint" />
          </mxGeometry>
        </mxCell>
        <mxCell id="hUBGKE-LYDCxL3Ye9ySd-104" style="edgeStyle=orthogonalEdgeStyle;rounded=0;orthogonalLoop=1;jettySize=auto;html=1;exitX=0.5;exitY=1;exitDx=0;exitDy=0;entryX=0.5;entryY=0;entryDx=0;entryDy=0;" parent="1" source="hUBGKE-LYDCxL3Ye9ySd-93" target="hUBGKE-LYDCxL3Ye9ySd-99" edge="1">
          <mxGeometry relative="1" as="geometry" />
        </mxCell>
        <mxCell id="hUBGKE-LYDCxL3Ye9ySd-93" value="" style="swimlane;startSize=0;" parent="1" vertex="1">
          <mxGeometry x="342" y="950" width="120" height="80" as="geometry" />
        </mxCell>
        <mxCell id="hUBGKE-LYDCxL3Ye9ySd-94" value="post_data.py" style="text;html=1;align=center;verticalAlign=middle;resizable=0;points=[];autosize=1;strokeColor=none;fillColor=none;fontSize=15;" parent="hUBGKE-LYDCxL3Ye9ySd-93" vertex="1">
          <mxGeometry x="5" y="10" width="110" height="30" as="geometry" />
        </mxCell>
        <mxCell id="hUBGKE-LYDCxL3Ye9ySd-95" value="post_code.py" style="text;html=1;align=center;verticalAlign=middle;resizable=0;points=[];autosize=1;strokeColor=none;fillColor=none;fontSize=15;" parent="hUBGKE-LYDCxL3Ye9ySd-93" vertex="1">
          <mxGeometry x="5" y="40" width="110" height="30" as="geometry" />
        </mxCell>
        <mxCell id="hUBGKE-LYDCxL3Ye9ySd-96" style="edgeStyle=orthogonalEdgeStyle;rounded=0;orthogonalLoop=1;jettySize=auto;html=1;entryX=0;entryY=0.5;entryDx=0;entryDy=0;" parent="1" source="hUBGKE-LYDCxL3Ye9ySd-6" target="hUBGKE-LYDCxL3Ye9ySd-93" edge="1">
          <mxGeometry relative="1" as="geometry">
            <Array as="points">
              <mxPoint x="149" y="555" />
              <mxPoint x="279" y="555" />
              <mxPoint x="279" y="990" />
            </Array>
          </mxGeometry>
        </mxCell>
        <mxCell id="hUBGKE-LYDCxL3Ye9ySd-97" style="edgeStyle=orthogonalEdgeStyle;rounded=0;orthogonalLoop=1;jettySize=auto;html=1;exitX=1;exitY=0.5;exitDx=0;exitDy=0;entryX=1;entryY=0.25;entryDx=0;entryDy=0;" parent="1" source="hUBGKE-LYDCxL3Ye9ySd-31" target="hUBGKE-LYDCxL3Ye9ySd-93" edge="1">
          <mxGeometry relative="1" as="geometry">
            <Array as="points">
              <mxPoint x="459" y="555" />
              <mxPoint x="539" y="555" />
              <mxPoint x="539" y="970" />
            </Array>
          </mxGeometry>
        </mxCell>
        <mxCell id="hUBGKE-LYDCxL3Ye9ySd-98" style="edgeStyle=orthogonalEdgeStyle;rounded=0;orthogonalLoop=1;jettySize=auto;html=1;exitX=1;exitY=0.5;exitDx=0;exitDy=0;entryX=1;entryY=0.75;entryDx=0;entryDy=0;" parent="1" source="hUBGKE-LYDCxL3Ye9ySd-67" target="hUBGKE-LYDCxL3Ye9ySd-93" edge="1">
          <mxGeometry relative="1" as="geometry">
            <Array as="points">
              <mxPoint x="719" y="555" />
              <mxPoint x="799" y="555" />
              <mxPoint x="799" y="1010" />
            </Array>
          </mxGeometry>
        </mxCell>
        <mxCell id="hUBGKE-LYDCxL3Ye9ySd-108" style="edgeStyle=orthogonalEdgeStyle;rounded=0;orthogonalLoop=1;jettySize=auto;html=1;exitX=0;exitY=0.75;exitDx=0;exitDy=0;entryX=1;entryY=0;entryDx=0;entryDy=90;entryPerimeter=0;" parent="1" source="hUBGKE-LYDCxL3Ye9ySd-99" target="hUBGKE-LYDCxL3Ye9ySd-105" edge="1">
          <mxGeometry relative="1" as="geometry" />
        </mxCell>
        <mxCell id="hUBGKE-LYDCxL3Ye9ySd-124" style="edgeStyle=orthogonalEdgeStyle;rounded=0;orthogonalLoop=1;jettySize=auto;html=1;exitX=1;exitY=0.5;exitDx=0;exitDy=0;entryX=0;entryY=0.5;entryDx=0;entryDy=0;" parent="1" source="hUBGKE-LYDCxL3Ye9ySd-99" target="hUBGKE-LYDCxL3Ye9ySd-121" edge="1">
          <mxGeometry relative="1" as="geometry" />
        </mxCell>
        <mxCell id="hUBGKE-LYDCxL3Ye9ySd-99" value="" style="swimlane;startSize=0;" parent="1" vertex="1">
          <mxGeometry x="342" y="1070" width="120" height="50" as="geometry" />
        </mxCell>
        <mxCell id="hUBGKE-LYDCxL3Ye9ySd-100" value="Django" style="text;html=1;align=center;verticalAlign=middle;resizable=0;points=[];autosize=1;strokeColor=none;fillColor=none;fontSize=25;" parent="hUBGKE-LYDCxL3Ye9ySd-99" vertex="1">
          <mxGeometry x="10" y="5" width="100" height="40" as="geometry" />
        </mxCell>
        <mxCell id="hUBGKE-LYDCxL3Ye9ySd-109" style="edgeStyle=orthogonalEdgeStyle;rounded=0;orthogonalLoop=1;jettySize=auto;html=1;exitX=1;exitY=0;exitDx=0;exitDy=40;exitPerimeter=0;entryX=0;entryY=0.25;entryDx=0;entryDy=0;" parent="1" source="hUBGKE-LYDCxL3Ye9ySd-105" target="hUBGKE-LYDCxL3Ye9ySd-99" edge="1">
          <mxGeometry relative="1" as="geometry">
            <mxPoint x="299" y="1080" as="targetPoint" />
          </mxGeometry>
        </mxCell>
        <mxCell id="hUBGKE-LYDCxL3Ye9ySd-105" value="PostGreSQL" style="shape=cylinder3;whiteSpace=wrap;html=1;boundedLbl=1;backgroundOutline=1;size=15;" parent="1" vertex="1">
          <mxGeometry x="139" y="1030" width="90" height="130" as="geometry" />
        </mxCell>
        <mxCell id="hUBGKE-LYDCxL3Ye9ySd-115" style="edgeStyle=orthogonalEdgeStyle;rounded=0;orthogonalLoop=1;jettySize=auto;html=1;exitX=0;exitY=0.5;exitDx=0;exitDy=0;entryX=0.25;entryY=1;entryDx=0;entryDy=0;" parent="1" source="hUBGKE-LYDCxL3Ye9ySd-112" target="hUBGKE-LYDCxL3Ye9ySd-1" edge="1">
          <mxGeometry relative="1" as="geometry" />
        </mxCell>
        <mxCell id="hUBGKE-LYDCxL3Ye9ySd-116" style="edgeStyle=orthogonalEdgeStyle;rounded=0;orthogonalLoop=1;jettySize=auto;html=1;exitX=0;exitY=0.25;exitDx=0;exitDy=0;entryX=0.5;entryY=1;entryDx=0;entryDy=0;" parent="1" source="hUBGKE-LYDCxL3Ye9ySd-112" target="hUBGKE-LYDCxL3Ye9ySd-17" edge="1">
          <mxGeometry relative="1" as="geometry" />
        </mxCell>
        <mxCell id="hUBGKE-LYDCxL3Ye9ySd-117" style="edgeStyle=orthogonalEdgeStyle;rounded=0;orthogonalLoop=1;jettySize=auto;html=1;exitX=1;exitY=0.5;exitDx=0;exitDy=0;entryX=0.75;entryY=1;entryDx=0;entryDy=0;" parent="1" source="hUBGKE-LYDCxL3Ye9ySd-112" target="hUBGKE-LYDCxL3Ye9ySd-62" edge="1">
          <mxGeometry relative="1" as="geometry" />
        </mxCell>
        <mxCell id="hUBGKE-LYDCxL3Ye9ySd-118" style="edgeStyle=orthogonalEdgeStyle;rounded=0;orthogonalLoop=1;jettySize=auto;html=1;exitX=1;exitY=0.25;exitDx=0;exitDy=0;entryX=0.5;entryY=1;entryDx=0;entryDy=0;" parent="1" source="hUBGKE-LYDCxL3Ye9ySd-112" target="hUBGKE-LYDCxL3Ye9ySd-75" edge="1">
          <mxGeometry relative="1" as="geometry" />
        </mxCell>
        <mxCell id="3lGJYCWVn_nTpUlj_sdL-3" style="edgeStyle=orthogonalEdgeStyle;rounded=0;orthogonalLoop=1;jettySize=auto;html=1;exitX=0.25;exitY=0;exitDx=0;exitDy=0;entryX=0.25;entryY=1;entryDx=0;entryDy=0;" edge="1" parent="1" source="hUBGKE-LYDCxL3Ye9ySd-112" target="hUBGKE-LYDCxL3Ye9ySd-26">
          <mxGeometry relative="1" as="geometry" />
        </mxCell>
        <mxCell id="3lGJYCWVn_nTpUlj_sdL-4" style="edgeStyle=orthogonalEdgeStyle;rounded=0;orthogonalLoop=1;jettySize=auto;html=1;exitX=0.75;exitY=0;exitDx=0;exitDy=0;entryX=0.75;entryY=1;entryDx=0;entryDy=0;" edge="1" parent="1" source="hUBGKE-LYDCxL3Ye9ySd-112" target="hUBGKE-LYDCxL3Ye9ySd-26">
          <mxGeometry relative="1" as="geometry" />
        </mxCell>
        <mxCell id="hUBGKE-LYDCxL3Ye9ySd-112" value="" style="swimlane;startSize=0;" parent="1" vertex="1">
          <mxGeometry x="309" y="760" width="194" height="70" as="geometry" />
        </mxCell>
        <mxCell id="3lGJYCWVn_nTpUlj_sdL-2" value="data_work_executer.sh" style="text;html=1;align=center;verticalAlign=middle;resizable=0;points=[];autosize=1;strokeColor=none;fillColor=none;fontSize=15;" vertex="1" parent="hUBGKE-LYDCxL3Ye9ySd-112">
          <mxGeometry x="12" y="5" width="170" height="30" as="geometry" />
        </mxCell>
        <mxCell id="3lGJYCWVn_nTpUlj_sdL-1" value="code_work_executer.sh" style="text;html=1;align=center;verticalAlign=middle;resizable=0;points=[];autosize=1;strokeColor=none;fillColor=none;fontSize=15;" vertex="1" parent="hUBGKE-LYDCxL3Ye9ySd-112">
          <mxGeometry x="7" y="35" width="180" height="30" as="geometry" />
        </mxCell>
        <mxCell id="hUBGKE-LYDCxL3Ye9ySd-121" value="" style="swimlane;startSize=0;" parent="1" vertex="1">
          <mxGeometry x="568" y="1060" width="121" height="70" as="geometry" />
        </mxCell>
        <mxCell id="hUBGKE-LYDCxL3Ye9ySd-122" value="App" style="text;html=1;align=center;verticalAlign=middle;resizable=0;points=[];autosize=1;strokeColor=none;fillColor=none;fontSize=30;" parent="hUBGKE-LYDCxL3Ye9ySd-121" vertex="1">
          <mxGeometry x="20.5" y="10" width="80" height="50" as="geometry" />
        </mxCell>
        <mxCell id="3lGJYCWVn_nTpUlj_sdL-9" value="" style="swimlane;startSize=0;" vertex="1" parent="1">
          <mxGeometry x="359" y="10" width="100" height="60" as="geometry" />
        </mxCell>
        <mxCell id="3lGJYCWVn_nTpUlj_sdL-10" value="Cron" style="text;html=1;align=center;verticalAlign=middle;resizable=0;points=[];autosize=1;strokeColor=none;fillColor=none;fontSize=25;" vertex="1" parent="3lGJYCWVn_nTpUlj_sdL-9">
          <mxGeometry x="10" y="10" width="80" height="40" as="geometry" />
        </mxCell>
        <mxCell id="3lGJYCWVn_nTpUlj_sdL-14" style="edgeStyle=orthogonalEdgeStyle;rounded=0;orthogonalLoop=1;jettySize=auto;html=1;exitX=0.5;exitY=0;exitDx=0;exitDy=0;entryX=0.5;entryY=1;entryDx=0;entryDy=0;" edge="1" parent="1" source="3lGJYCWVn_nTpUlj_sdL-11" target="hUBGKE-LYDCxL3Ye9ySd-112">
          <mxGeometry relative="1" as="geometry" />
        </mxCell>
        <mxCell id="3lGJYCWVn_nTpUlj_sdL-15" style="edgeStyle=orthogonalEdgeStyle;rounded=0;orthogonalLoop=1;jettySize=auto;html=1;exitX=0.5;exitY=1;exitDx=0;exitDy=0;entryX=0.5;entryY=0;entryDx=0;entryDy=0;" edge="1" parent="1" source="3lGJYCWVn_nTpUlj_sdL-11" target="hUBGKE-LYDCxL3Ye9ySd-93">
          <mxGeometry relative="1" as="geometry" />
        </mxCell>
        <mxCell id="3lGJYCWVn_nTpUlj_sdL-11" value="" style="swimlane;startSize=0;" vertex="1" parent="1">
          <mxGeometry x="359" y="860" width="100" height="60" as="geometry" />
        </mxCell>
        <mxCell id="3lGJYCWVn_nTpUlj_sdL-12" value="Cron" style="text;html=1;align=center;verticalAlign=middle;resizable=0;points=[];autosize=1;strokeColor=none;fillColor=none;fontSize=25;" vertex="1" parent="3lGJYCWVn_nTpUlj_sdL-11">
          <mxGeometry x="10" y="10" width="80" height="40" as="geometry" />
        </mxCell>
      </root>
    </mxGraphModel>
  </diagram>
</mxfile>
